<?xml version="1.0" standalone="no"?>
<!DOCTYPE svg PUBLIC "-//W3C//DTD SVG 20010904//EN"
 "http://www.w3.org/TR/2001/REC-SVG-20010904/DTD/svg10.dtd">
<svg version="1.0" xmlns="http://www.w3.org/2000/svg"
 width="512.000000pt" height="512.000000pt" viewBox="0 0 512.000000 512.000000"
 preserveAspectRatio="xMidYMid meet">
<metadata>
Created by potrace 1.11, written by Peter Selinger 2001-2013
</metadata>
<g transform="translate(0.000000,512.000000) scale(0.100000,-0.100000)"
fill="#000000" stroke="none">
<path d="M1030 5113 c-297 -50 -524 -254 -602 -543 -20 -74 -21 -98 -21 -2010
1 -1928 1 -1935 21 -2012 55 -204 192 -375 371 -464 101 -50 102 -51 136 -58
17 -3 41 -10 55 -13 14 -4 828 -9 1809 -10 1772 -3 1784 -3 1826 17 27 13 49
34 65 63 l24 42 1 2410 c0 1326 -2 2427 -6 2447 -3 21 -17 53 -30 72 -49 71
104 66 -1857 65 -972 -1 -1778 -4 -1792 -6z m3358 -1991 l2 -1672 -1647 0
c-907 -1 -1666 -3 -1688 -6 -87 -11 -178 -38 -250 -75 l-75 -38 0 1552 c0
1682 -2 1610 54 1708 56 100 172 180 285 196 30 5 788 8 1685 8 l1631 0 3
-1673z m2 -2114 c0 -88 -3 -118 -12 -118 -7 -1 -590 -1 -1295 -1 -1266 -1
-1282 -1 -1322 -21 -53 -26 -80 -65 -88 -127 -5 -42 -2 -57 20 -94 17 -29 41
-52 66 -64 38 -19 71 -20 1318 -21 703 0 1286 -1 1296 -1 16 -1 17 -12 15
-118 l-3 -118 -1640 1 c-902 0 -1660 3 -1684 7 -25 4 -72 20 -105 36 -204 96
-284 354 -172 552 56 97 156 170 266 192 45 10 452 13 1700 13 l1640 0 0 -118z"/>
<path d="M2485 4178 c-125 -16 -269 -89 -344 -174 -35 -40 -46 -46 -99 -54
-125 -21 -237 -78 -325 -167 -67 -68 -91 -104 -127 -193 -87 -211 -36 -455
130 -620 36 -36 94 -80 128 -98 l62 -33 0 -321 c0 -305 1 -324 21 -364 12 -26
36 -53 57 -66 l37 -23 525 0 c289 0 536 3 550 7 37 11 78 50 95 91 12 30 15
94 15 356 l0 320 62 33 c127 67 244 218 281 361 24 90 20 227 -9 318 -68 214
-264 376 -488 403 -29 3 -45 13 -68 41 -74 89 -216 165 -339 180 -91 11 -102
11 -164 3z m176 -342 c42 -18 112 -83 134 -125 29 -56 68 -74 179 -82 109 -7
138 -18 194 -71 69 -64 95 -176 64 -268 -22 -63 -94 -131 -164 -153 -30 -9
-61 -17 -68 -17 -22 0 -79 -49 -97 -83 -15 -28 -17 -70 -18 -334 0 -166 -3
-304 -7 -308 -5 -5 -286 -8 -588 -5 l-55 0 1 298 c0 309 -3 340 -44 385 -22
25 -68 48 -106 54 -85 13 -176 93 -202 178 -26 82 3 191 66 252 52 51 95 66
201 73 110 7 143 23 184 94 67 114 208 163 326 112z"/>
</g>
</svg>
